<svg width="32" height="33" viewBox="0 0 32 33" fill="none" xmlns="http://www.w3.org/2000/svg">
<g id="Btn - twitter">
<path id="&#239;&#130;&#153;" d="M25.5156 12.1147C26.4531 11.4116 27.2969 10.5679 27.9531 9.5835C27.1094 9.9585 26.125 10.2397 25.1406 10.3335C26.1719 9.72412 26.9219 8.78662 27.2969 7.61475C26.3594 8.17725 25.2812 8.59912 24.2031 8.8335C23.2656 7.84912 22 7.28662 20.5938 7.28662C17.875 7.28662 15.6719 9.48975 15.6719 12.2085C15.6719 12.5835 15.7188 12.9585 15.8125 13.3335C11.7344 13.0991 8.07812 11.1304 5.64062 8.17725C5.21875 8.88037 4.98438 9.72412 4.98438 10.6616C4.98438 12.3491 5.82812 13.8491 7.1875 14.7397C6.39062 14.6929 5.59375 14.5054 4.9375 14.1304V14.1772C4.9375 16.5679 6.625 18.5366 8.875 19.0054C8.5 19.0991 8.03125 19.1929 7.60938 19.1929C7.28125 19.1929 7 19.146 6.67188 19.0991C7.28125 21.0679 9.10938 22.4741 11.2656 22.521C9.57812 23.8335 7.46875 24.6304 5.17188 24.6304C4.75 24.6304 4.375 24.5835 4 24.5366C6.15625 25.9429 8.73438 26.7397 11.5469 26.7397C20.5938 26.7397 25.5156 19.2866 25.5156 12.771C25.5156 12.5366 25.5156 12.3491 25.5156 12.1147Z" fill="black"/>
</g>
</svg>
